<?xml version="1.0" encoding="utf-8"?>
<svg version="1.1" xmlns:xlink="http://www.w3.org/1999/xlink" width="20px" height="20px" preserveAspectRatio="xMinYMid meet" viewBox="1054 3401  20 18" xmlns="http://www.w3.org/2000/svg">
  <path d="M 217 1660  L 217 2388  A 3 3 0 0 1 220 2391 A 3 3 0 0 1 217 2394 L 217 3405  A 5 5 0 0 0 222 3410 L 1064 3410  " stroke-width="2" stroke="#e83123" fill="none" />
  <path d="M 217 1658  A 3.5 3.5 0 0 0 213.5 1661.5 A 3.5 3.5 0 0 0 217 1665 A 3.5 3.5 0 0 0 220.5 1661.5 A 3.5 3.5 0 0 0 217 1658 Z M 1058.89289321881 3405.70710678119  L 1063.18578643763 3410  L 1058.89289321881 3414.29289321881  L 1060.30710678119 3415.70710678119  L 1065.30710678119 3410.70710678119  L 1066.01421356237 3410  L 1065.30710678119 3409.29289321881  L 1060.30710678119 3404.29289321881  L 1058.89289321881 3405.70710678119  Z " fill-rule="nonzero" fill="#e83123" stroke="none" />
</svg>