<?xml version="1.0" encoding="utf-8"?>
<svg version="1.1" xmlns:xlink="http://www.w3.org/1999/xlink" width="41px" height="41px" xmlns="http://www.w3.org/2000/svg">
  <defs>
    <filter x="797px" y="125px" width="41px" height="41px" filterUnits="userSpaceOnUse" id="filter59">
      <feOffset dx="1" dy="1" in="SourceAlpha" result="shadowOffsetInner" />
      <feGaussianBlur stdDeviation="2.5" in="shadowOffsetInner" result="shadowGaussian" />
      <feComposite in2="shadowGaussian" operator="atop" in="SourceAlpha" result="shadowComposite" />
      <feColorMatrix type="matrix" values="0 0 0 0 0  0 0 0 0 0  0 0 0 0 0  0 0 0 0.698039215686274 0  " in="shadowComposite" />
    </filter>
    <g id="widget60">
      <path d="M 816.5 129  C 825.18 129  832 135.82  832 144.5  C 832 153.18  825.18 160  816.5 160  C 807.82 160  801 153.18  801 144.5  C 801 135.82  807.82 129  816.5 129  Z " fill-rule="nonzero" fill="#cc3d10" stroke="none" />
      <path d="M 816.5 129.5  C 824.9 129.5  831.5 136.1  831.5 144.5  C 831.5 152.9  824.9 159.5  816.5 159.5  C 808.1 159.5  801.5 152.9  801.5 144.5  C 801.5 136.1  808.1 129.5  816.5 129.5  Z " stroke-width="1" stroke="#ffffff" fill="none" />
    </g>
  </defs>
  <g transform="matrix(1 0 0 1 -797 -125 )">
    <use xlink:href="#widget60" filter="url(#filter59)" />
    <use xlink:href="#widget60" />
  </g>
</svg>