<?xml version="1.0" encoding="utf-8"?>
<svg version="1.1" xmlns:xlink="http://www.w3.org/1999/xlink" width="246px" height="10px" preserveAspectRatio="xMinYMid meet" viewBox="261 350  246 8" xmlns="http://www.w3.org/2000/svg">
  <path d="M 266 458  L 266 354  L 359 354  A 3 3 0 0 1 362 351 A 3 3 0 0 1 365 354 L 505 354  " stroke-width="2" stroke="#f78662" fill="none" />
  <path d="M 266 453  A 3.5 3.5 0 0 0 262.5 456.5 A 3.5 3.5 0 0 0 266 460 A 3.5 3.5 0 0 0 269.5 456.5 A 3.5 3.5 0 0 0 266 453 Z M 499.892893218813 349.707106781187  L 504.185786437627 354  L 499.892893218813 358.292893218813  L 501.307106781187 359.707106781187  L 506.307106781187 354.707106781187  L 507.014213562373 354  L 506.307106781187 353.292893218813  L 501.307106781187 348.292893218813  L 499.892893218813 349.707106781187  Z " fill-rule="nonzero" fill="#f78662" stroke="none" />
</svg>