<?xml version="1.0" encoding="utf-8"?>
<svg version="1.1" xmlns:xlink="http://www.w3.org/1999/xlink" width="38px" height="47px" xmlns="http://www.w3.org/2000/svg">
  <defs>
    <mask fill="white" id="clip51">
      <path d="M 28 12.95  C 28 22.2  19.6 27.75  14 37  C 10.8031751802575 31.7195304316754  6.69387813478988 27.6448277330589  3.75569019111413 23.3992399556128  C 1.54694221794796 20.2076696483023  0 16.9195304316754  0 12.95  C 0 8.1400000000001  2.79999999999995 0  14 0  C 25.2 0  28 8.1400000000001  28 12.95  Z " fill-rule="evenodd" />
    </mask>
    <filter x="959px" y="2047px" width="38px" height="47px" filterUnits="userSpaceOnUse" id="filter52">
      <feOffset dx="1" dy="1" in="SourceAlpha" result="shadowOffsetInner" />
      <feGaussianBlur stdDeviation="2.5" in="shadowOffsetInner" result="shadowGaussian" />
      <feComposite in2="shadowGaussian" operator="atop" in="SourceAlpha" result="shadowComposite" />
      <feColorMatrix type="matrix" values="0 0 0 0 0  0 0 0 0 0  0 0 0 0 0  0 0 0 0.698039215686274 0  " in="shadowComposite" />
    </filter>
    <g id="widget53">
      <path d="M 28 12.95  C 28 22.2  19.6 27.75  14 37  C 10.8031751802575 31.7195304316754  6.69387813478988 27.6448277330589  3.75569019111413 23.3992399556128  C 1.54694221794796 20.2076696483023  0 16.9195304316754  0 12.95  C 0 8.1400000000001  2.79999999999995 0  14 0  C 25.2 0  28 8.1400000000001  28 12.95  Z " fill-rule="nonzero" fill="#e54812" stroke="none" transform="matrix(1 0 0 1 963 2051 )" />
      <path d="M 28 12.95  C 28 22.2  19.6 27.75  14 37  C 10.8031751802575 31.7195304316754  6.69387813478988 27.6448277330589  3.75569019111413 23.3992399556128  C 1.54694221794796 20.2076696483023  0 16.9195304316754  0 12.95  C 0 8.1400000000001  2.79999999999995 0  14 0  C 25.2 0  28 8.1400000000001  28 12.95  Z " stroke-width="2" stroke="#ffffff" fill="none" transform="matrix(1 0 0 1 963 2051 )" mask="url(#clip51)" />
    </g>
  </defs>
  <g transform="matrix(1 0 0 1 -959 -2047 )">
    <use xlink:href="#widget53" filter="url(#filter52)" />
    <use xlink:href="#widget53" />
  </g>
</svg>