<?xml version="1.0" encoding="utf-8"?>
<svg version="1.1" xmlns:xlink="http://www.w3.org/1999/xlink" width="10px" height="32px" preserveAspectRatio="xMidYMin meet" viewBox="1234 11  8 32" xmlns="http://www.w3.org/2000/svg">
  <path d="M 365 595  L 366 595  L 366 16  L 1238 16  L 1238 42  " stroke-width="2" stroke="#e83123" fill="none" />
  <path d="M 366 591  A 3.5 3.5 0 0 0 362.5 594.5 A 3.5 3.5 0 0 0 366 598 A 3.5 3.5 0 0 0 369.5 594.5 A 3.5 3.5 0 0 0 366 591 Z M 1242.29289321881 36.8928932188135  L 1238 41.185786437627  L 1233.70710678119 36.8928932188135  L 1232.29289321881 38.3071067811865  L 1237.29289321881 43.3071067811865  L 1238 44.014213562373  L 1238.70710678119 43.3071067811865  L 1243.70710678119 38.3071067811865  L 1242.29289321881 36.8928932188135  Z " fill-rule="nonzero" fill="#e83123" stroke="none" />
</svg>